#!OML:ASF H:\Terrain\Patient Classification 1\Walking\liu\liu.ASF
:FULLY-SPECIFIED
:DEGREES
96
root 9.26009 16.6878 -19.0553 4.87752 -1.25008 4.17635
lowerback -4.29957 -1.06599 -5.92999
upperback -0.134001 -1.15204 0.981353
thorax 2.41353 -0.647539 4.27353
lowerneck -22.3422 -3.54727 -12.2645
upperneck 19.4104 -3.89052 12.6409
head 10.4046 -1.21799 6.0357
rclavicle -6.80837e-015 -1.19271e-015
rhumerus -40.657 13.552 -89.8227
rradius 32.2975
rwrist -12.1919
rhand -33.7632 -26.4018
rfingers 7.12502
rthumb -6.95102 -56.2677
lclavicle -6.80837e-015 -1.19271e-015
lhumerus -22.418 -13.7207 91.2426
lradius 21.864
lwrist -5.79881
lhand -16.5557 -25.9587
lfingers 7.12502
lthumb 9.66402 3.79961
rfemur -24.9133 -7.23071 17.3702
rtibia 69.5452
rfoot -6.87091 -12.4375
rtoes -14.521
lfemur -13.9417 7.53213 -30.7173
ltibia 17.3402
lfoot -10.2327 3.59636
ltoes -3.43678
97
root 9.27224 16.6755 -18.936 4.91343 -0.977326 4.11294
lowerback -4.19395 -1.23902 -5.81558
upperback -0.141497 -1.39539 0.990766
thorax 2.37266 -0.766338 4.20383
lowerneck -22.4063 -3.45876 -12.0811
upperneck 19.6222 -3.84573 12.6643
head 10.4829 -1.1796 6.02983
rclavicle -2.15184e-014 -5.96354e-015
rhumerus -40.9296 13.2321 -89.7607
rradius 32.5132
rwrist -12.2495
rhand -33.0806 -25.1827
rfingers 7.12502
rthumb -6.29202 -55.0693
lclavicle -2.15184e-014 -5.96354e-015
lhumerus -21.6405 -13.7305 90.9062
lradius 22.0735
lwrist -6.31301
lhand -16.1791 -26.3777
lfingers 7.12502
lthumb 10.0273 3.36342
rfemur -26.1129 -6.91816 17.6406
rtibia 69.1164
rfoot -6.99702 -12.0656
rtoes -17.9823
lfemur -13.7238 7.3841 -30.6629
ltibia 17.7998
lfoot -10.5542 3.65323
ltoes -3.53012
98
root 9.28162 16.6504 -18.8202 4.97041 -0.603552 3.91289
lowerback -4.20091 -1.45287 -5.6008
upperback -0.0607257 -1.69062 1.06921
thorax 2.4907 -0.917038 4.14281
lowerneck -22.6097 -3.40158 -11.87
upperneck 19.9319 -3.79537 12.4829
head 10.6166 -1.15671 5.94769
rclavicle -3.05631e-015 -1.11319e-014
rhumerus -40.9994 13.0545 -89.7609
rradius 32.5724
rwrist -12.1562
rhand -31.2911 -26.7681
rfingers 7.12502
rthumb -4.56423 -56.699
lclavicle -3.05631e-015 -1.11319e-014
lhumerus -20.7072 -14.6747 90.7702
lradius 22.6365
lwrist -5.02002
lhand -15.6072 -25.8867
lfingers 7.12502
lthumb 10.5791 3.82705
rfemur -27.228 -6.61076 18.0705
rtibia 68.5596
rfoot -8.14276 -11.8019
rtoes -16.3028
lfemur -13.5319 6.41766 -30.3833
ltibia 18.2839
lfoot -11.2907 4.29438
ltoes -2.32833
99
root 9.28744 16.6445 -18.6954 4.94486 -0.266147 3.94046
lowerback -4.22744 -1.64698 -5.7326
upperback 0.0339869 -1.94326 1.21889
thorax 2.64268 -1.05257 4.35322
lowerneck -22.3589 -3.40774 -12.2261
upperneck 19.8403 -3.70464 12.4972
head 10.5306 -1.14837 6.02199
rclavicle -9.6659e-015 1.59028e-015
rhumerus -41.1828 13.3209 -89.7672
rradius 32.5553
rwrist -12.2838
rhand -31.871 -26.4522
rfingers 7.12502
rthumb -5.1242 -56.3702
lclavicle -9.6659e-015 1.59028e-015
lhumerus -19.6841 -15.1812 90.8044
lradius 23.1489
lwrist -3.65484
lhand -14.5692 -25.3427
lfingers 7.12502
lthumb 11.5802 4.31733
rfemur -28.1986 -6.34788 18.2154
rtibia 67.8186
rfoot -9.21466 -11.7604
rtoes -15.8044
lfemur -13.2456 5.77693 -30.3375
ltibia 18.808
lfoot -12.1313 4.5201
ltoes -1.29357
100
root 9.29242 16.6317 -18.5669 4.84767 -0.110306 4.08954
lowerback -4.05688 -1.69604 -5.93379
upperback -0.0125899 -2.01212 1.28619
thorax 2.51648 -1.08519 4.53716
lowerneck -21.7585 -3.46926 -12.769
upperneck 19.572 -3.73463 12.8107
head 10.3448 -1.18407 6.21247
rclavicle 1.82136e-014 2.06736e-014
rhumerus -41.7842 13.5233 -89.8248
rradius 32.5913
rwrist -12.6887
rhand -35.8737 -21.2106
rfingers 7.12502
rthumb -8.98791 -50.9991
lclavicle 1.82136e-014 2.06736e-014
lhumerus -18.9968 -15.522 90.9078
lradius 23.4228
lwrist -3.2972
lhand -14.414 -25.5906
lfingers 7.12502
lthumb 11.7299 4.06102
rfemur -29.0685 -5.87636 18.1757
rtibia 66.9419
rfoot -10.0129 -11.723
rtoes -16.5011
lfemur -12.8115 5.60808 -30.438
ltibia 19.246
lfoot -12.6363 4.38706
ltoes -0.974455
101
root 9.30345 16.6084 -18.4365 4.88356 0.00946939 4.14707
lowerback -4.06632 -1.7417 -5.85382
upperback 0.0034035 -2.07311 1.17818
thorax 2.53882 -1.11484 4.3745
lowerneck -21.746 -3.47619 -12.6372
upperneck 19.599 -3.81958 12.9161
head 10.365 -1.20141 6.21805
rclavicle 3.25261e-014 2.3059e-014
rhumerus -42.0934 13.1176 -89.8086
rradius 32.5104
rwrist -12.7482
rhand -32.2984 -23.8649
rfingers 7.12502
rthumb -5.53683 -53.7725
lclavicle 3.25261e-014 2.3059e-014
lhumerus -18.1597 -16.1336 90.621
lradius 23.6827
lwrist -3.00347
lhand -14.6789 -25.8557
lfingers 7.12502
lthumb 11.4745 3.81032
rfemur -29.9695 -5.40922 18.1642
rtibia 65.9083
rfoot -11.0957 -11.4367
rtoes -16.1812
lfemur -12.4268 5.20891 -30.5105
ltibia 19.4846
lfoot -12.9397 4.65471
ltoes -1.4549
102
root 9.31615 16.5941 -18.3052 4.98765 0.249015 4.16718
lowerback -4.18747 -1.8899 -5.75686
upperback 0.109844 -2.26344 1.09398
thorax 2.73284 -1.21602 4.21294
lowerneck -22.5322 -3.42318 -12.0267
upperneck 20.0743 -3.80316 12.5266
head 10.6591 -1.17071 5.99581
rclavicle 3.81915e-014 -2.78299e-015
rhumerus -42.0423 12.6604 -89.6783
rradius 32.2329
rwrist -12.7843
rhand -29.3288 -22.8812
rfingers 7.12502
rthumb -2.66924 -52.8442
lclavicle 3.81915e-014 -2.78299e-015
lhumerus -17.2318 -16.9314 90.1491
lradius 24.1257
lwrist -2.45134
lhand -14.7641 -25.9608
lfingers 7.12502
lthumb 11.3922 3.70977
rfemur -30.8606 -5.12694 18.1709
rtibia 64.679
rfoot -12.2125 -11.2005
rtoes -15.7579
lfemur -12.1741 4.75352 -30.5729
ltibia 19.7972
lfoot -13.5882 4.94665
ltoes -2.65619
103
root 9.31975 16.5846 -18.1778 4.87948 0.600491 4.07114
lowerback -3.90022 -2.04372 -5.70645
upperback 0.110879 -2.49045 1.17091
thorax 2.60031 -1.32557 4.25704
lowerneck -22.717 -3.41103 -11.91
upperneck 20.3197 -3.77838 12.3417
head 10.7724 -1.16799 5.92148
rclavicle -1.08338e-014 1.70955e-014
rhumerus -42.3341 12.5141 -89.6021
rradius 32.0943
rwrist -13.0616
rhand -30.2965 -21.9181
rfingers 7.12502
rthumb -3.6038 -51.8674
lclavicle -1.08338e-014 1.70955e-014
lhumerus -16.8327 -17.8003 90.0503
lradius 24.6746
lwrist -2.08472
lhand -15.5972 -26.1375
lfingers 7.12502
lthumb 10.5888 3.57578
rfemur -31.418 -4.91482 18.3925
rtibia 63.2128
rfoot -12.6399 -11.4627
rtoes -15.942
lfemur -11.7454 4.72831 -30.4263
ltibia 20.2125
lfoot -14.3145 4.68292
ltoes -2.4709
104
root 9.32168 16.5764 -18.0489 4.83243 0.897269 3.7187
lowerback -3.71504 -2.15278 -5.40758
upperback 0.0584209 -2.66503 1.32577
thorax 2.45583 -1.40491 4.24492
lowerneck -22.2817 -3.38673 -12.1244
upperneck 20.2226 -3.74891 12.4872
head 10.6589 -1.16643 6.00981
rclavicle -1.54058e-015 -6.36111e-015
rhumerus -42.699 12.4796 -89.6028
rradius 32.0283
rwrist -13.348
rhand -32.1726 -16.3191
rfingers 7.12502
rthumb -5.41539 -46.2299
lclavicle -1.54058e-015 -6.36111e-015
lhumerus -16.5078 -17.9884 90.0898
lradius 25.1272
lwrist -2.09631
lhand -16.4397 -26.3157
lfingers 7.12502
lthumb 9.77593 3.43739
rfemur -31.9131 -4.5087 18.9152
rtibia 61.53
rfoot -12.9864 -12.0705
rtoes -16.3404
lfemur -11.3837 4.61048 -29.9835
ltibia 20.5989
lfoot -14.7497 4.5355
ltoes -0.430624
105
root 9.3259 16.5696 -17.9195 4.96377 1.17045 3.3825
lowerback -3.86515 -2.24725 -5.09021
upperback 0.0994769 -2.79988 1.45708
thorax 2.58925 -1.47367 4.18681
lowerneck -22.2333 -3.37637 -12.3568
upperneck 20.2788 -3.7196 12.704
head 10.6756 -1.14795 6.14018
rclavicle 2.63887e-014 -2.38542e-015
rhumerus -42.8435 12.4729 -89.5519
rradius 31.9323
rwrist -13.5102
rhand -29.6765 -20.53
rfingers 7.12502
rthumb -3.00508 -50.4885
lclavicle 2.63887e-014 -2.38542e-015
lhumerus -15.6387 -17.8966 89.9645
lradius 25.3483
lwrist -2.12599
lhand -16.4216 -26.491
lfingers 7.12502
lthumb 9.79344 3.26125
rfemur -32.5648 -3.93094 19.2933
rtibia 59.6984
rfoot -13.4527 -12.6514
rtoes -17.0428
lfemur -11.1278 4.35328 -29.5879
ltibia 20.8188
lfoot -15.1558 4.50284
ltoes 0.985841
106
root 9.33166 16.5664 -17.7872 4.93705 1.42973 3.30847
lowerback -3.89158 -2.34275 -5.01074
upperback 0.236174 -2.92757 1.45506
thorax 2.75581 -1.54358 4.12658
lowerneck -22.2309 -3.38358 -12.3926
upperneck 20.1846 -3.75931 12.8958
head 10.6523 -1.14603 6.20976
rclavicle -8.24956e-015 2.22639e-014
rhumerus -43.0064 12.4566 -89.5887
rradius 31.9479
rwrist -13.4592
rhand -27.5048 -23.8429
rfingers 7.12502
rthumb -0.907626 -53.8207
lclavicle -8.24956e-015 2.22639e-014
lhumerus -14.6179 -17.6983 89.6188
lradius 25.5543
lwrist -2.62095
lhand -16.0687 -26.6837
lfingers 7.12502
lthumb 10.1339 3.05223
rfemur -33.0083 -3.48412 19.2807
rtibia 57.7702
rfoot -13.6039 -12.883
rtoes -17.2373
lfemur -10.5218 4.32958 -29.4863
ltibia 20.7684
lfoot -15.5713 4.48463
ltoes 0.155363
107
root 9.34327 16.575 -17.642 4.83568 1.42093 3.43677
lowerback -3.86589 -2.31736 -5.04877
upperback 0.289078 -2.89024 1.37611
thorax 2.78981 -1.52682 4.06847
lowerneck -22.0753 -3.4128 -12.1558
upperneck 19.9557 -3.84837 12.7664
head 10.5458 -1.18645 6.09254
rclavicle -3.26504e-014 1.19271e-014
rhumerus -43.3799 12.2877 -89.6009
rradius 32.0077
rwrist -13.2461
rhand -27.7408 -24.0455
rfingers 7.12502
rthumb -1.13553 -54.0222
lclavicle -3.26504e-014 1.19271e-014
lhumerus -14.0917 -18.4679 89.5046
lradius 26.1309
lwrist -1.98657
lhand -16.0402 -26.6298
lfingers 7.12502
lthumb 10.1613 3.1048
rfemur -33.3123 -2.95587 18.9566
rtibia 55.7999
rfoot -14.0603 -12.2797
rtoes -17.1029
lfemur -9.619 4.23682 -29.6513
ltibia 20.4106
lfoot -15.7807 4.86383
ltoes -1.10642
